<?xml version="1.0" encoding="utf-8"?>
<!-- Generator: Adobe Illustrator 27.5.0, SVG Export Plug-In . SVG Version: 6.00 Build 0)  -->
<svg version="1.1" xmlns="http://www.w3.org/2000/svg" xmlns:xlink="http://www.w3.org/1999/xlink" x="0px" y="0px"
	 viewBox="0 0 800 800" style="enable-background:new 0 0 800 800;" xml:space="preserve">
<g id="background">
</g>
<g id="objects">
	<g>
		<g>
			<g>
				<text transform="matrix(1 0 0 1 109.9156 85.0254)"><tspan x="0" y="0" style="fill:#7B7B7A; font-family:'CooperHewitt-Light'; font-size:22.6342px; letter-spacing:2;">  FLAT INFOGRAPHIC </tspan><tspan x="0" y="28.91" style="fill:#7B7B7A; font-family:'CooperHewitt-Light'; font-size:22.6342px; letter-spacing:2;">ELEMENT COLLECTION</tspan></text>
			</g>
			<g>
				<path style="fill:#5C97B7;" d="M106.373,84.93c0.166,0.938-0.46,1.834-1.397,2c-0.938,0.166-1.834-0.46-2-1.397
					c-0.167-0.939,0.459-1.834,1.398-2.001C105.311,83.366,106.206,83.992,106.373,84.93z"/>
				<path style="fill:#5C97B7;" d="M86.709,92.744c0.166,0.937-0.46,1.832-1.397,1.999c-0.938,0.166-1.834-0.46-2.001-1.397
					c-0.166-0.938,0.46-1.834,1.398-2.001C85.646,91.179,86.542,91.805,86.709,92.744z"/>
				<g>
					<path style="fill:#7B7B7A;" d="M82.687,94.988l-13.312,26.28l1.04,0.526l13.18-26.018
						C83.243,95.576,82.937,95.31,82.687,94.988z"/>
					<path style="fill:#7B7B7A;" d="M119.887,52.267l-7.195,4.308l0.599,1l4.038-2.418l-12.012,27.061
						c0.394,0.06,0.765,0.193,1.101,0.392L119.887,52.267z"/>
					<path style="fill:#7B7B7A;" d="M87.499,91.174c0.247,0.302,0.435,0.653,0.554,1.043l14.497-4.935
						c-0.261-0.295-0.465-0.641-0.598-1.028L87.499,91.174z"/>
				</g>
			</g>
		</g>
		<g>
			<g>
				<g>
					<path style="fill:#303954;" d="M246.715,578.938c87.729,0,158.87-71,159.109-158.671H246.715V578.938z"/>
					<path style="fill:#3D4566;" d="M87.605,420.267c0.241,87.671,71.381,158.671,159.11,158.671V420.267H87.605z"/>
					<path style="fill:#417E99;" d="M259.758,247.663v159.56h159.109c0.002-0.148,0.006-0.296,0.006-0.445
						C418.873,318.902,347.635,247.663,259.758,247.663z"/>
					<path style="fill:#5C97B7;" d="M246.715,260.706c-87.877,0-159.115,71.239-159.115,159.115c0,0.149,0.004,0.297,0.005,0.446
						h159.11V260.706z"/>
					<path style="fill:#575756;" d="M390.92,273.682c-35.035-35.035-81.616-54.329-131.162-54.329v17.39
						c92.692,0,168.102,75.41,168.102,168.102c0,0.518-0.015,1.029-0.02,1.547h17.391c0.006-0.517,0.02-1.03,0.02-1.547
						C445.249,355.297,425.955,308.716,390.92,273.682z"/>
					<g>
						<path style="fill:#B2B2B1;" d="M78.595,418.719c0-92.691,75.41-168.101,168.102-168.101v-17.39
							c-102.28,0-185.491,83.212-185.491,185.491c0,0.519,0.016,1.03,0.02,1.548h17.39C78.61,419.749,78.595,419.237,78.595,418.719
							z"/>
						<g>
							<path style="fill:#E8E8E8;" d="M432.17,420.267h-17.391c-0.835,91.973-75.898,166.544-168.064,166.555v17.389
								c49.54-0.005,96.113-19.298,131.143-54.329C412.528,515.211,431.771,469.235,432.17,420.267z"/>
							<path style="fill:#D4D4D3;" d="M246.696,586.821c-92.174,0-167.247-74.574-168.082-166.555h-17.39
								c0.836,101.569,83.709,183.943,185.472,183.943c0.007,0,0.012,0,0.019,0v-17.389
								C246.708,586.821,246.703,586.821,246.696,586.821z"/>
						</g>
						<path id="SVGID_x5F_1_x5F_" style="fill:none;" d="M199.103,584.551c-90.232-26.803-141.656-121.68-114.851-211.912
							c26.801-90.233,121.679-141.654,211.91-114.851c90.234,26.802,141.655,121.678,114.853,211.91
							C384.211,559.93,289.337,611.352,199.103,584.551z"/>
						<text>						<textPath  xlink:href="#SVGID_x5F_1_x5F_" startOffset="104.3783%">
<tspan  style="fill:#575756; font-family:'CooperHewitt-Light'; font-size:11.0216px; letter-spacing:10;">loren </tspan><tspan  style="fill:#575756; font-family:'CooperHewitt-LightItalic'; font-size:11.0216px; letter-spacing:10;">ipsum</tspan>						</textPath>
</text>
						<path id="SVGID_x5F_00000052788503135576077510000008120109127660182670_x5F_" style="fill:none;" d="M105.365,324.163
							c54.081-77.041,160.379-95.658,237.421-41.575c77.044,54.08,95.657,160.378,41.575,237.418
							c-54.082,77.045-160.379,95.658-237.423,41.577C69.898,507.502,51.283,401.205,105.365,324.163z"/>
						<text>						<textPath  xlink:href="#SVGID_x5F_00000052788503135576077510000008120109127660182670_x5F_" startOffset="104.3783%">
<tspan  style="fill:#575756; font-family:'CooperHewitt-Light'; font-size:11.0215px; letter-spacing:10;">loren </tspan><tspan  style="fill:#575756; font-family:'CooperHewitt-LightItalic'; font-size:11.0215px; letter-spacing:10;">ipsum</tspan>						</textPath>
</text>
						<path id="SVGID_x5F_00000134226000498693558300000011251114147927586452_x5F_" style="fill:none;" d="M291.645,255.988
							c90.221,26.84,141.604,121.736,114.764,211.959C379.569,558.17,284.67,609.551,194.45,582.709
							C104.227,555.869,52.846,460.973,79.686,370.75C106.526,280.531,201.422,229.148,291.645,255.988z"/>
						<text>						<textPath  xlink:href="#SVGID_x5F_00000134226000498693558300000011251114147927586452_x5F_" startOffset="104.3783%">
<tspan  style="fill:#E8E8E8; font-family:'CooperHewitt-Light'; font-size:11.0216px; letter-spacing:10;">loren </tspan><tspan  style="fill:#E8E8E8; font-family:'CooperHewitt-LightItalic'; font-size:11.0216px; letter-spacing:10;">ipsum</tspan>						</textPath>
</text>
					</g>
				</g>
				<g>
					<g>
						<path style="fill:#FFFFFF;" d="M259.758,463.519l31.102-2.112c0,0-0.959,1.824-3.264,3.84c-2.304,2.016-3.36,2.588-3.36,2.588
							H262.35L259.758,463.519z"/>
						<rect x="274.253" y="435.296" style="fill:#FFFFFF;" width="0.576" height="28.605"/>
						<polyline style="fill:#FFFFFF;" points="273.389,435.68 273.389,436.063 273.389,461.406 261.966,462.366 						"/>
						<path style="fill:#FFFFFF;" d="M275.692,437.983c0,0,7.2,5.472,9.6,12.288c2.4,6.814,2.496,10.079,2.496,10.079l-11.615,1.056
							c0,0,3.648-8.447,3.072-14.015C278.668,441.823,275.692,437.983,275.692,437.983z"/>
					</g>
				</g>
				<g>
					<text transform="matrix(1 0 0 1 260.1909 483.0332)"><tspan x="0" y="0" style="fill:#FFFFFF; font-family:'CooperHewitt-Light'; font-size:8.8485px;">Lorem ipsum</tspan><tspan x="0" y="10.618" style="fill:#FFFFFF; font-family:'CooperHewitt-Light'; font-size:8.8485px;">dolor </tspan><tspan x="22.094" y="10.618" style="fill:#FFFFFF; font-family:'CooperHewitt-LightItalic'; font-size:8.8485px;">sit amet</tspan><tspan x="53.993" y="10.618" style="fill:#FFFFFF; font-family:'CooperHewitt-Light'; font-size:8.8485px;">.</tspan></text>
				</g>
				<path style="fill:#FFFFFF;" d="M386.081,342.229c-0.854-0.941-5.303-0.685-6.757-0.513c-0.42,0.049-2.772,1.175-5.903,2.749
					l-5.695-2.987c0.248-0.329,0.26-0.918-0.011-1.483c-0.338-0.707-0.985-1.104-1.444-0.884l-1.598,0.765l-9.129-4.79l-2.182,1.283
					l11.672,12.4c-6.058,3.15-11.735,6.165-11.735,6.165l-5.492-1.263l-1.587,1.127l4.671,2.633l0.547,1.735l-0.343,5.474
					l1.541-0.598l2.053-5.475c0,0,6.265-2.28,12.805-4.698l1.741,17.34l2.399-0.804l2.376-10.031l1.625-0.705
					c0.468-0.201,0.594-0.95,0.282-1.67c-0.25-0.575-0.702-0.952-1.112-0.981l1.528-6.448c3.098-1.174,5.374-2.066,5.73-2.286
					C383.344,347.496,386.937,343.169,386.081,342.229z"/>
				<g>
					<g>
						<path style="fill:#FFFFFF;" d="M191.813,319.381c-2.675,0-4.853-2.177-4.853-4.853c0-2.675,2.177-4.852,4.853-4.852
							c2.675,0,4.852,2.177,4.852,4.852C196.665,317.205,194.488,319.381,191.813,319.381z M191.813,312.118
							c-1.33,0-2.411,1.081-2.411,2.411c0,1.33,1.081,2.411,2.411,2.411c1.329,0,2.411-1.081,2.411-2.411
							C194.224,313.2,193.142,312.118,191.813,312.118z"/>
					</g>
					<g>
						<path style="fill:#FFFFFF;" d="M216.891,319.127c-2.675,0-4.852-2.177-4.852-4.853c0-2.675,2.177-4.852,4.852-4.852
							c2.675,0,4.853,2.177,4.853,4.852C221.744,316.95,219.566,319.127,216.891,319.127z M216.891,311.864
							c-1.329,0-2.411,1.081-2.411,2.41c0,1.33,1.081,2.411,2.411,2.411c1.33,0,2.411-1.081,2.411-2.411
							C219.302,312.945,218.221,311.864,216.891,311.864z"/>
					</g>
					<path style="fill:#FFFFFF;" d="M233.286,306.26c-0.508-0.688-14.6-5.599-14.6-5.599s-8.241-8.649-8.851-8.649
						c-0.611,0-13.989,0.099-15.515,0.001c-1.526-0.098-8.038,7.468-8.038,7.468s-4.272,1.08-4.985,1.277
						c-0.712,0.196-2.85,13.657-2.34,13.755c0.11,0.021,2.692,0.019,6.665,0.003c0.006-3.366,2.736-6.092,6.104-6.092
						c3.345,0,6.06,2.692,6.1,6.028c4.148-0.025,8.572-0.053,12.831-0.081c0.084-3.298,2.778-5.947,6.097-5.947
						c3.29,0,5.964,2.605,6.092,5.864c5.821-0.041,9.829-0.07,9.829-0.07S233.795,306.949,233.286,306.26z M202.052,301.12
						l-11.699-0.255l4.069-7.223h7.63V301.12z M203.732,300.967v-7.325h5.748l7.412,7.325H203.732z"/>
				</g>
				<path id="SVGID_x5F_00000065052450414647810680000015656324861237904033_x5F_" style="fill:none;" d="M407.973,485.563
					C361.08,567.178,256.9,595.33,175.283,548.435c-81.617-46.893-109.766-151.072-62.872-232.688
					c46.894-81.618,151.072-109.767,232.689-62.874C426.715,299.767,454.866,403.943,407.973,485.563z"/>
				<text>				<textPath  xlink:href="#SVGID_x5F_00000065052450414647810680000015656324861237904033_x5F_" startOffset="104.3783%">
<tspan  style="fill:#FFFFFF; font-family:'CooperHewitt-Light'; font-size:11.0215px; letter-spacing:10;">loren </tspan><tspan  style="fill:#FFFFFF; font-family:'CooperHewitt-LightItalic'; font-size:11.0215px; letter-spacing:10;">ipsum</tspan>				</textPath>
</text>
				<g>
					<text transform="matrix(1 0 0 1 348.0522 384.9634)"><tspan x="0" y="0" style="fill:#FFFFFF; font-family:'CooperHewitt-Light'; font-size:8.8485px;">Lorem ipsum</tspan><tspan x="0" y="10.618" style="fill:#FFFFFF; font-family:'CooperHewitt-Light'; font-size:8.8485px;">dolor </tspan><tspan x="22.094" y="10.618" style="fill:#FFFFFF; font-family:'CooperHewitt-LightItalic'; font-size:8.8485px;">sit amet</tspan><tspan x="53.993" y="10.618" style="fill:#FFFFFF; font-family:'CooperHewitt-Light'; font-size:8.8485px;">.</tspan></text>
				</g>
				<g>
					<text transform="matrix(1 0 0 1 184.0532 331.0347)"><tspan x="0" y="0" style="fill:#FFFFFF; font-family:'CooperHewitt-Light'; font-size:8.8485px;">Lorem ipsum</tspan><tspan x="-6.459" y="10.618" style="fill:#FFFFFF; font-family:'CooperHewitt-Light'; font-size:8.8485px;">dolor </tspan><tspan x="15.635" y="10.618" style="fill:#FFFFFF; font-family:'CooperHewitt-LightItalic'; font-size:8.8485px;">sit amet</tspan><tspan x="47.534" y="10.618" style="fill:#FFFFFF; font-family:'CooperHewitt-Light'; font-size:8.8485px;">.</tspan></text>
				</g>
				<path style="fill:#FFFFFF;" d="M142.531,446.626c-0.629,0-1.238,0.084-1.825,0.226l-1.293-3.524l0.414-0.566l-0.622,0.002
					l-1.695-4.618h-3.06v1.355h2.114l1.199,3.267l-14.158,0.044l-0.837-1.124h2.072c0.663,0,1.201-0.537,1.201-1.2
					c0-0.664-0.538-1.201-1.201-1.201h-4.25c-0.664,0-1.201,0.537-1.201,1.201c0,0.663,0.537,1.2,1.201,1.2h0.487l2.206,2.961
					l-1.806,2.852c-0.975-0.439-2.051-0.689-3.187-0.689c-4.302,0-7.803,3.501-7.803,7.805c0,4.302,3.501,7.802,7.803,7.802
					c4.303,0,7.803-3.5,7.803-7.802c0-2.683-1.36-5.053-3.428-6.459l1.486-2.343l6.794,9.122l7.508-10.29l0.966,2.633
					c-2.757,1.205-4.69,3.955-4.69,7.151c0,4.302,3.499,7.803,7.802,7.803c4.303,0,7.803-3.501,7.803-7.803
					C150.334,450.127,146.833,446.626,142.531,446.626z M124.737,454.615c0,3.554-2.892,6.446-6.447,6.446
					c-3.555,0-6.447-2.893-6.447-6.446c0-3.556,2.892-6.447,6.447-6.447c0.869,0,1.697,0.175,2.454,0.487l-3.026,4.774l1.145,0.726
					l3.076-4.851C123.626,450.467,124.737,452.414,124.737,454.615z M130.933,452.649l-6.32-8.484l12.54-0.039L130.933,452.649z
					 M142.531,460.877c-3.554,0-6.446-2.893-6.446-6.447c0-2.612,1.563-4.861,3.803-5.873l2.007,5.47l1.273-0.468l-1.993-5.431
					c0.438-0.093,0.892-0.145,1.356-0.145c3.555,0,6.447,2.892,6.447,6.446C148.978,457.984,146.086,460.877,142.531,460.877z"/>
				<g>
					<text transform="matrix(1 0 0 1 110.4863 474.2373)"><tspan x="0" y="0" style="fill:#FFFFFF; font-family:'CooperHewitt-Light'; font-size:8.8485px;">Lorem ipsum</tspan><tspan x="0" y="10.618" style="fill:#FFFFFF; font-family:'CooperHewitt-Light'; font-size:8.8485px;">dolor </tspan><tspan x="22.094" y="10.618" style="fill:#FFFFFF; font-family:'CooperHewitt-LightItalic'; font-size:8.8485px;">sit amet</tspan><tspan x="53.993" y="10.618" style="fill:#FFFFFF; font-family:'CooperHewitt-Light'; font-size:8.8485px;">.</tspan></text>
				</g>
			</g>
			
				<text transform="matrix(1 0 0 1 59.4531 228.6782)" style="fill:#5C97B7; font-family:'CooperHewitt-Medium'; font-size:24.409px;">25%</text>
			<polyline style="fill:none;stroke:#B2B2B1;stroke-miterlimit:10;" points="59.454,232.174 120.113,232.174 157.46,260.706 			"/>
			<text transform="matrix(1 0 0 1 59.9072 244.5791)"><tspan x="0" y="0" style="fill:#575756; font-family:'CooperHewitt-Light'; font-size:9.3544px;">Lorem ipsum</tspan><tspan x="17.558" y="10.327" style="fill:#575756; font-family:'CooperHewitt-Light'; font-size:9.3544px;">dolor </tspan><tspan x="40.803" y="10.327" style="fill:#575756; font-family:'CooperHewitt-Medium'; font-size:9.3544px;">sit </tspan><tspan x="29.671" y="20.654" style="fill:#575756; font-family:'CooperHewitt-Medium'; font-size:9.3544px;">amet</tspan><tspan x="50.063" y="20.654" style="fill:#575756; font-family:'CooperHewitt-Light'; font-size:9.3544px;">.</tspan></text>
			
				<text transform="matrix(1 0 0 1 386.8149 178.9243)" style="fill:#417E99; font-family:'CooperHewitt-Medium'; font-size:24.409px;">25%</text>
			<polyline style="fill:none;stroke:#B2B2B1;stroke-miterlimit:10;" points="320.377,233.228 386.815,182.419 445.249,182.419 			
				"/>
			<text transform="matrix(1 0 0 1 388.1855 195.7417)"><tspan x="0" y="0" style="fill:#575756; font-family:'CooperHewitt-Light'; font-size:9.3544px;">Lorem ipsum</tspan><tspan x="17.558" y="10.327" style="fill:#575756; font-family:'CooperHewitt-Light'; font-size:9.3544px;">dolor </tspan><tspan x="40.804" y="10.327" style="fill:#575756; font-family:'CooperHewitt-Medium'; font-size:9.3544px;">sit </tspan><tspan x="29.672" y="20.654" style="fill:#575756; font-family:'CooperHewitt-Medium'; font-size:9.3544px;">amet</tspan><tspan x="50.064" y="20.654" style="fill:#575756; font-family:'CooperHewitt-Light'; font-size:9.3544px;">.</tspan></text>
			
				<text transform="matrix(1 0 0 1 72.5654 621.9863)" style="fill:#3D4566; font-family:'CooperHewitt-Medium'; font-size:24.409px;">25%</text>
			<polyline style="fill:none;stroke:#B2B2B1;stroke-miterlimit:10;" points="72.566,625.481 133.226,625.481 180.996,583.96 			"/>
			<text transform="matrix(1 0 0 1 73.019 637.8867)"><tspan x="0" y="0" style="fill:#575756; font-family:'CooperHewitt-Light'; font-size:9.3544px;">Lorem ipsum</tspan><tspan x="17.558" y="10.327" style="fill:#575756; font-family:'CooperHewitt-Light'; font-size:9.3544px;">dolor </tspan><tspan x="40.803" y="10.327" style="fill:#575756; font-family:'CooperHewitt-Medium'; font-size:9.3544px;">sit </tspan><tspan x="29.671" y="20.653" style="fill:#575756; font-family:'CooperHewitt-Medium'; font-size:9.3544px;">amet</tspan><tspan x="50.063" y="20.653" style="fill:#575756; font-family:'CooperHewitt-Light'; font-size:9.3544px;">.</tspan></text>
			
				<text transform="matrix(1 0 0 1 395.7368 579.5742)" style="fill:#303954; font-family:'CooperHewitt-Medium'; font-size:24.409px;">25%</text>
			<polyline style="fill:none;stroke:#B2B2B1;stroke-miterlimit:10;" points="353.292,560.786 392.504,584.154 456.337,584.154 			
				"/>
			<text transform="matrix(1 0 0 1 396.1904 595.4746)"><tspan x="0" y="0" style="fill:#575756; font-family:'CooperHewitt-Light'; font-size:9.3544px;">Lorem ipsum</tspan><tspan x="17.558" y="10.327" style="fill:#575756; font-family:'CooperHewitt-Light'; font-size:9.3544px;">dolor </tspan><tspan x="40.803" y="10.327" style="fill:#575756; font-family:'CooperHewitt-Medium'; font-size:9.3544px;">sit </tspan><tspan x="29.672" y="20.653" style="fill:#575756; font-family:'CooperHewitt-Medium'; font-size:9.3544px;">amet</tspan><tspan x="50.064" y="20.653" style="fill:#575756; font-family:'CooperHewitt-Light'; font-size:9.3544px;">.</tspan></text>
		</g>
		<g>
			<rect x="52.454" y="718.854" style="fill:#575756;" width="169.326" height="11.967"/>
			<rect x="221.78" y="718.854" style="fill:#B2B2B1;" width="77.3" height="11.967"/>
			<rect x="299.08" y="718.854" style="fill:#D4D4D3;" width="56.597" height="11.967"/>
			<rect x="355.677" y="718.854" style="fill:#E8E8E8;" width="115.807" height="11.967"/>
		</g>
		<g>
			<rect x="506.546" y="108.83" style="fill:#417E99;" width="259.821" height="194.555"/>
			<g>
				<g>
					<text transform="matrix(1 0 0 1 599.873 145.9771)"><tspan x="0" y="0" style="fill:none;stroke:#FFFFFF;stroke-linecap:round;stroke-linejoin:round;stroke-miterlimit:10; font-family:'CooperHewitt-Medium'; font-size:28.3602px;">25</tspan><tspan x="29.664" y="0" style="fill:#FFFFFF; font-family:'CooperHewitt-Medium'; font-size:28.3602px;">%</tspan></text>
				</g>
				<g>
					<path style="fill:#FFFFFF;" d="M558.968,177.082c-0.088,0-0.177-0.025-0.253-0.075c-0.119-0.077-0.197-0.204-0.211-0.346
						l-2.637-26.267c-9.073,3.353-17.664,6.484-19.075,6.999l-3.106,8.281c-0.047,0.124-0.144,0.223-0.267,0.271l-2.387,0.928
						c-0.147,0.058-0.316,0.037-0.444-0.058c-0.129-0.094-0.201-0.247-0.191-0.406l0.525-8.395l-0.766-2.43l-7.077-3.989
						c-0.14-0.079-0.229-0.223-0.237-0.383c-0.008-0.159,0.066-0.312,0.196-0.404l2.46-1.746c0.108-0.076,0.244-0.104,0.374-0.074
						l8.341,1.918c1.189-0.631,9.078-4.813,17.483-9.187l-17.66-18.764c-0.098-0.104-0.143-0.246-0.123-0.386
						c0.021-0.14,0.103-0.264,0.226-0.337l3.38-1.987c0.14-0.083,0.311-0.085,0.455-0.011l13.936,7.312l2.264-1.084
						c0.928-0.446,2.237,0.284,2.861,1.589c0.385,0.803,0.459,1.65,0.225,2.302l8.2,4.301c8.133-4.087,8.825-4.168,9.087-4.199
						c1.021-0.12,2.898-0.26,4.824-0.26c4.949,0,5.774,0.907,6.047,1.206c0.273,0.301,0.374,0.725,0.297,1.26
						c-0.361,2.544-4.825,7.727-6.627,8.834c-0.195,0.119-0.779,0.478-8.727,3.492l-2.202,9.298
						c0.645,0.251,1.235,0.863,1.589,1.679c0.347,0.799,0.4,1.664,0.143,2.314c-0.168,0.421-0.451,0.728-0.822,0.888l-2.302,0.997
						l-3.627,15.316c-0.038,0.157-0.152,0.284-0.306,0.335l-3.718,1.246C559.068,177.074,559.019,177.082,558.968,177.082z
						 M556.271,149.281c0.088,0,0.173,0.024,0.248,0.071c0.122,0.077,0.203,0.205,0.217,0.35l2.638,26.286l2.918-0.978l3.622-15.291
						c0.034-0.144,0.133-0.262,0.268-0.321l2.518-1.091c0.142-0.061,0.25-0.186,0.324-0.375c0.166-0.418,0.115-1.031-0.131-1.598
						c-0.353-0.814-0.935-1.214-1.326-1.241c-0.136-0.009-0.263-0.079-0.343-0.189c-0.082-0.11-0.11-0.251-0.079-0.384l2.365-9.991
						c0.036-0.151,0.144-0.274,0.29-0.329c6.682-2.532,8.475-3.302,8.801-3.502c1.556-0.957,5.883-5.992,6.192-8.171
						c0.033-0.239,0.01-0.417-0.066-0.5c-0.245-0.271-1.26-0.9-5.354-0.9c-1.765,0-3.641,0.128-4.715,0.254
						c-0.242,0.028-1.601,0.495-8.991,4.213c-0.134,0.068-0.292,0.066-0.427-0.004l-8.824-4.628
						c-0.121-0.064-0.209-0.178-0.239-0.312c-0.028-0.134,0.001-0.274,0.084-0.384c0.237-0.314,0.317-1.015-0.065-1.815
						c-0.451-0.944-1.211-1.342-1.616-1.15l-2.475,1.186c-0.133,0.063-0.287,0.061-0.419-0.008l-13.913-7.3l-2.654,1.56
						l17.685,18.787c0.1,0.107,0.145,0.254,0.12,0.398c-0.024,0.144-0.115,0.269-0.245,0.336c-9.277,4.824-18.091,9.503-18.18,9.549
						c-0.098,0.052-0.212,0.069-0.323,0.043l-8.305-1.91l-1.688,1.199l6.598,3.717c0.103,0.059,0.18,0.153,0.216,0.267l0.847,2.688
						c0.017,0.055,0.023,0.112,0.021,0.17l-0.485,7.753l1.512-0.587l3.107-8.287c0.047-0.128,0.148-0.228,0.276-0.275
						c0,0,9.706-3.532,19.838-7.278C556.161,149.291,556.217,149.281,556.271,149.281z"/>
				</g>
				<g>
					<text transform="matrix(1 0 0 1 599.8721 162.7241)"><tspan x="0" y="0" style="fill:#FFFFFF; font-family:'CooperHewitt-Light'; font-size:9.5887px;">Duis interdum erat eu tellus vulputate </tspan><tspan x="0" y="11.999" style="fill:#FFFFFF; font-family:'CooperHewitt-Light'; font-size:9.5887px;">euismod quis in libero.</tspan></text>
				</g>
			</g>
			<rect x="517.225" y="211.776" style="fill:#FFFFFF;" width="165.303" height="10.689"/>
			<rect x="517.225" y="231.927" style="fill:#FFFFFF;" width="153.227" height="10.689"/>
			<rect x="517.225" y="251.117" style="fill:#FFFFFF;" width="100.312" height="10.689"/>
			<rect x="517.225" y="271.267" style="fill:#FFFFFF;" width="144.998" height="10.689"/>
			
				<text transform="matrix(1 0 0 1 685.3789 220.9761)" style="fill:#FFFFFF; font-family:'CooperHewitt-Light'; font-size:9.5887px;"> erat eu tellus</text>
			
				<text transform="matrix(1 0 0 1 660.2842 220.9761)" style="fill:#5C97B7; font-family:'CooperHewitt-Medium'; font-size:9.5887px;">95%</text>
			
				<text transform="matrix(1 0 0 1 673.6494 241.1636)" style="fill:#FFFFFF; font-family:'CooperHewitt-Light'; font-size:9.5887px;"> erat eu tellus</text>
			
				<text transform="matrix(1 0 0 1 648.5547 241.1641)" style="fill:#5C97B7; font-family:'CooperHewitt-Medium'; font-size:9.5887px;">85%</text>
			
				<text transform="matrix(1 0 0 1 620.7334 260.5112)" style="fill:#FFFFFF; font-family:'CooperHewitt-Light'; font-size:9.5887px;"> erat eu tellus</text>
			
				<text transform="matrix(1 0 0 1 595.6377 260.5117)" style="fill:#5C97B7; font-family:'CooperHewitt-Medium'; font-size:9.5887px;">65%</text>
			
				<text transform="matrix(1 0 0 1 665.4189 279.9512)" style="fill:#FFFFFF; font-family:'CooperHewitt-Light'; font-size:9.5887px;"> erat eu tellus</text>
			
				<text transform="matrix(1 0 0 1 640.3242 279.9512)" style="fill:#5C97B7; font-family:'CooperHewitt-Medium'; font-size:9.5887px;">80%</text>
		</g>
		<g>
			<rect x="506.546" y="49.592" style="fill:#7B7B7A;" width="259.821" height="52.106"/>
			<g>
				
					<text transform="matrix(1 0 0 1 520.4219 78.2603)" style="fill:#FFFFFF; font-family:'CooperHewitt-Light'; font-size:10.2809px;">A TITLE HERE</text>
			</g>
			<g>
				<g>
					<line style="fill:none;stroke:#FFFFFF;stroke-miterlimit:10;" x1="520.295" y1="84.764" x2="521.295" y2="84.764"/>
					
						<line style="fill:none;stroke:#FFFFFF;stroke-miterlimit:10;stroke-dasharray:1.9842,1.9842;" x1="523.279" y1="84.764" x2="756.419" y2="84.764"/>
					<line style="fill:none;stroke:#FFFFFF;stroke-miterlimit:10;" x1="757.411" y1="84.764" x2="758.411" y2="84.764"/>
				</g>
			</g>
		</g>
		<g>
			<rect x="506.546" y="313.033" style="fill:#303954;" width="259.821" height="101.625"/>
			<g>
				<g>
					<path style="fill:#FFFFFF;" d="M566.471,388.368h-35.979c-0.179,0-0.345-0.094-0.437-0.247l-4.261-7.094
						c-0.092-0.152-0.097-0.341-0.016-0.499c0.083-0.157,0.24-0.26,0.417-0.272l51.128-3.471c0.201-0.017,0.361,0.077,0.462,0.231
						c0.101,0.154,0.11,0.351,0.024,0.514c-0.066,0.126-1.665,3.121-5.482,6.458c-3.787,3.313-5.542,4.278-5.615,4.318
						C566.639,388.347,566.555,388.368,566.471,388.368z M530.78,387.349h35.553c0.428-0.256,2.153-1.353,5.324-4.126
						c2.514-2.199,4.038-4.261,4.755-5.354l-49.316,3.348L530.78,387.349z"/>
				</g>
				<g>
					<rect x="550.059" y="334.372" style="fill:#FFFFFF;" width="0.947" height="44.84"/>
				</g>
				<g>
					<path style="fill:#FFFFFF;" d="M529.86,379.381c-0.163,0-0.317-0.078-0.413-0.211c-0.104-0.146-0.125-0.335-0.056-0.499
						l18.778-43.868c0.095-0.223,0.328-0.35,0.571-0.299c0.236,0.049,0.407,0.258,0.407,0.5v42.29c0,0.265-0.203,0.486-0.467,0.508
						l-18.778,1.577C529.89,379.38,529.874,379.381,529.86,379.381z M548.129,337.488l-17.467,40.805l17.467-1.468V337.488z"/>
				</g>
				<g>
					<path style="fill:#FFFFFF;" d="M553.215,377.804c-0.162,0-0.316-0.078-0.413-0.211c-0.105-0.146-0.126-0.335-0.055-0.501
						c0.06-0.137,5.933-13.872,5.012-22.784c-0.923-8.905-5.688-15.144-5.737-15.206c-0.156-0.202-0.139-0.49,0.041-0.671
						c0.182-0.183,0.47-0.201,0.671-0.047c0.119,0.091,12.003,9.217,15.952,20.435c3.927,11.15,4.125,16.501,4.132,16.725
						c0.009,0.269-0.194,0.497-0.463,0.522l-19.094,1.736C553.246,377.803,553.229,377.804,553.215,377.804z M554.656,341.34
						c1.525,2.733,3.535,7.253,4.115,12.862c0.831,8.033-3.502,19.411-4.762,22.508l17.755-1.613
						c-0.14-1.539-0.824-6.805-4.041-15.939C564.991,351.396,558.332,344.639,554.656,341.34z"/>
				</g>
			</g>
			<g>
				<text transform="matrix(1 0 0 1 592.5146 358.7725)"><tspan x="0" y="0" style="fill:none;stroke:#FFFFFF;stroke-linecap:round;stroke-linejoin:round;stroke-miterlimit:10; font-family:'CooperHewitt-Medium'; font-size:28.3602px;">25</tspan><tspan x="29.664" y="0" style="fill:#FFFFFF; font-family:'CooperHewitt-Medium'; font-size:28.3602px;">%</tspan></text>
			</g>
			<g>
				<text transform="matrix(1 0 0 1 592.5137 375.519)"><tspan x="0" y="0" style="fill:#FFFFFF; font-family:'CooperHewitt-Light'; font-size:9.5887px;">Duis interdum erat eu tellus vulputate </tspan><tspan x="0" y="11.999" style="fill:#FFFFFF; font-family:'CooperHewitt-Light'; font-size:9.5887px;">euismod quis in libero.</tspan></text>
			</g>
		</g>
		<g>
			<rect x="506.386" y="424.535" style="fill:#5C97B7;" width="259.821" height="116.942"/>
			<g>
				<g>
					<g>
						<path style="fill:#FFFFFF;" d="M533.724,478.295c-3.018,0-5.475-2.454-5.475-5.473c0-3.02,2.456-5.476,5.475-5.476
							c3.019,0,5.474,2.456,5.474,5.476C539.197,475.841,536.742,478.295,533.724,478.295z M533.724,470.104
							c-1.5,0-2.72,1.218-2.72,2.719c0,1.5,1.22,2.718,2.72,2.718c1.499,0,2.72-1.218,2.72-2.718
							C536.443,471.321,535.223,470.104,533.724,470.104z"/>
					</g>
					<g>
						<path style="fill:#FFFFFF;" d="M562.019,478.008c-3.019,0-5.476-2.453-5.476-5.473c0-3.019,2.457-5.475,5.476-5.475
							c3.017,0,5.474,2.456,5.474,5.475C567.492,475.555,565.035,478.008,562.019,478.008z M562.019,469.815
							c-1.5,0-2.721,1.221-2.721,2.721c0,1.501,1.221,2.719,2.721,2.719c1.499,0,2.72-1.218,2.72-2.719
							C564.738,471.035,563.518,469.815,562.019,469.815z"/>
					</g>
					<path style="fill:none;stroke:#FFFFFF;stroke-miterlimit:10;" d="M580.514,463.351c-0.572-0.776-16.471-6.318-16.471-6.318
						s-9.298-9.756-9.985-9.756c-0.689,0-15.783,0.109-17.505,0c-1.722-0.109-9.067,8.424-9.067,8.424s-4.82,1.221-5.624,1.441
						c-0.805,0.221-3.216,15.407-2.641,15.519c0.125,0.024,3.037,0.022,7.521,0.005c0.007-3.798,3.086-6.874,6.886-6.874
						c3.773,0,6.837,3.039,6.883,6.802c4.679-0.027,9.67-0.06,14.476-0.091c0.095-3.722,3.135-6.711,6.878-6.711
						c3.711,0,6.729,2.941,6.874,6.617c6.566-0.046,11.089-0.08,11.089-0.08S581.088,464.127,580.514,463.351z"/>
				</g>
				<polygon style="fill:#FFFFFF;" points="545.277,458.63 532.076,458.342 536.667,450.193 545.277,450.193 				"/>
				<polygon style="fill:#FFFFFF;" points="547.172,458.457 547.172,450.193 553.655,450.193 562.019,458.457 				"/>
			</g>
			<g>
				<text transform="matrix(1 0 0 1 592.3545 466.1543)"><tspan x="0" y="0" style="fill:none;stroke:#FFFFFF;stroke-linecap:round;stroke-linejoin:round;stroke-miterlimit:10; font-family:'CooperHewitt-Medium'; font-size:28.3602px;">25</tspan><tspan x="29.664" y="0" style="fill:#FFFFFF; font-family:'CooperHewitt-Medium'; font-size:28.3602px;">%</tspan></text>
			</g>
			<g>
				<text transform="matrix(1 0 0 1 592.3545 483.1025)"><tspan x="0" y="0" style="fill:#FFFFFF; font-family:'CooperHewitt-Light'; font-size:9.5887px;">Cum sociis natoque penatibus et magnis </tspan><tspan x="0" y="12.228" style="fill:#FFFFFF; font-family:'CooperHewitt-Light'; font-size:9.5887px;">dis parturient montes, nascetur ridiculus </tspan><tspan x="0" y="24.455" style="fill:#FFFFFF; font-family:'CooperHewitt-Light'; font-size:9.5887px;">mus. Cras arcu eros, luctus quis justo </tspan><tspan x="0" y="36.683" style="fill:#FFFFFF; font-family:'CooperHewitt-Light'; font-size:9.5887px;">eget, efficitur egestas sem</tspan></text>
			</g>
		</g>
		<g>
			<rect x="506.386" y="552.529" style="fill:#3D4566;" width="259.821" height="178.291"/>
			<path style="fill:#FFFFFF;" d="M564.638,586.488c-0.856,0-1.685,0.114-2.481,0.307l-1.757-4.786l0.565-0.769l-0.847,0.002
				l-2.303-6.274h-4.158v1.842h2.872l1.63,4.438l-19.235,0.06l-1.139-1.527h2.815c0.901,0,1.63-0.729,1.63-1.63
				c0-0.903-0.729-1.632-1.63-1.632h-5.774c-0.901,0-1.632,0.729-1.632,1.632c0,0.9,0.73,1.63,1.632,1.63h0.661l2.996,4.024
				l-2.452,3.873c-1.326-0.597-2.788-0.936-4.33-0.936c-5.846,0-10.602,4.756-10.602,10.603c0,5.844,4.757,10.6,10.602,10.6
				c5.845,0,10.601-4.756,10.601-10.6c0-3.646-1.849-6.866-4.657-8.776l2.019-3.183l9.231,12.394l10.199-13.981l1.314,3.577
				c-3.745,1.637-6.372,5.372-6.372,9.716c0,5.846,4.755,10.603,10.602,10.603c5.846,0,10.602-4.757,10.602-10.603
				C575.239,591.246,570.483,586.488,564.638,586.488z M540.461,597.344c0,4.827-3.931,8.758-8.759,8.758
				c-4.83,0-8.76-3.931-8.76-8.758c0-4.83,3.93-8.761,8.76-8.761c1.179,0,2.306,0.238,3.334,0.663l-4.113,6.487l1.557,0.985
				l4.179-6.592C538.952,591.708,540.461,594.352,540.461,597.344z M548.88,594.672l-8.586-11.526l17.036-0.054L548.88,594.672z
				 M564.638,605.852c-4.83,0-8.759-3.931-8.759-8.761c0-3.548,2.124-6.605,5.167-7.979l2.727,7.432l1.73-0.635l-2.709-7.378
				c0.597-0.127,1.213-0.198,1.845-0.198c4.83,0,8.761,3.93,8.761,8.759C573.398,601.921,569.468,605.852,564.638,605.852z"/>
			<g>
				<text transform="matrix(1 0 0 1 589.7246 592.7861)"><tspan x="0" y="0" style="fill:none;stroke:#FFFFFF;stroke-linecap:round;stroke-linejoin:round;stroke-miterlimit:10; font-family:'CooperHewitt-Medium'; font-size:28.3602px;">25</tspan><tspan x="29.664" y="0" style="fill:#FFFFFF; font-family:'CooperHewitt-Medium'; font-size:28.3602px;">%</tspan></text>
			</g>
			<g>
				<text transform="matrix(1 0 0 1 589.7236 609.5332)"><tspan x="0" y="0" style="fill:#FFFFFF; font-family:'CooperHewitt-Light'; font-size:9.5887px;">Duis interdum erat eu tellus vulputate </tspan><tspan x="0" y="11.999" style="fill:#FFFFFF; font-family:'CooperHewitt-Light'; font-size:9.5887px;">euismod quis in libero.</tspan></text>
			</g>
			<g>
				
					<line style="fill:none;stroke:#FFFFFF;stroke-width:0.5;stroke-miterlimit:10;" x1="577.138" y1="645.455" x2="577.138" y2="718.489"/>
				
					<line style="fill:none;stroke:#FFFFFF;stroke-width:0.5;stroke-miterlimit:10;" x1="524.363" y1="718.489" x2="746.191" y2="718.489"/>
				<g>
					
						<text transform="matrix(1 0 0 1 524.6807 711.9131)" style="fill:#FFFFFF; font-family:'CooperHewitt-Light'; font-size:9.5887px;">loren ipsum</text>
				</g>
				<rect x="692.869" y="660.029" style="fill:#417E99;" width="15.422" height="52.064"/>
				<rect x="612.165" y="694.736" style="fill:#417E99;" width="15.423" height="17.357"/>
				<rect x="666.775" y="677.377" style="fill:#5C97B7;" width="15.422" height="34.728"/>
				<rect x="584.448" y="705.481" style="fill:#5C97B7;" width="15.424" height="6.612"/>
				<rect x="639.653" y="649.381" style="fill:#1F273A;" width="15.424" height="62.713"/>
				<rect x="719.811" y="684.324" style="fill:#1F273A;" width="15.423" height="27.769"/>
			</g>
		</g>
		<g>
			<g>
				<path style="fill:#B2B2B1;" d="M233.373,714.068c-1.805,0-3.273-1.468-3.273-3.273c0-1.805,1.469-3.273,3.273-3.273
					c1.806,0,3.274,1.469,3.274,3.273C236.648,712.601,235.179,714.068,233.373,714.068z M233.373,709.169
					c-0.896,0-1.626,0.729-1.626,1.626c0,0.897,0.73,1.626,1.626,1.626c0.898,0,1.627-0.729,1.627-1.626
					C235,709.898,234.271,709.169,233.373,709.169z"/>
			</g>
			<g>
				<path style="fill:#B2B2B1;" d="M250.293,713.898c-1.805,0-3.273-1.469-3.273-3.275c0-1.805,1.469-3.273,3.273-3.273
					c1.806,0,3.274,1.469,3.274,3.273C253.568,712.429,252.099,713.898,250.293,713.898z M250.293,708.997
					c-0.896,0-1.626,0.73-1.626,1.626c0,0.896,0.73,1.627,1.626,1.627c0.897,0,1.627-0.731,1.627-1.627
					C251.92,709.727,251.191,708.997,250.293,708.997z"/>
			</g>
			<path style="fill:#B2B2B1;" d="M261.355,705.216c-0.343-0.464-9.85-3.776-9.85-3.776s-5.561-5.836-5.972-5.836
				c-0.412,0-9.438,0.066-10.468,0.001c-1.029-0.066-5.423,5.038-5.423,5.038s-2.883,0.729-3.363,0.861s-1.922,9.215-1.579,9.281
				c0.074,0.014,1.816,0.013,4.497,0.002c0.004-2.271,1.846-4.109,4.118-4.109c2.257,0,4.088,1.816,4.115,4.066
				c2.799-0.017,5.783-0.036,8.657-0.055c0.057-2.226,1.874-4.012,4.112-4.012c2.22,0,4.024,1.757,4.111,3.955
				c3.928-0.027,6.632-0.047,6.632-0.047S261.699,705.681,261.355,705.216z M240.283,701.748l-7.894-0.172l2.745-4.873h5.148
				V701.748z M241.415,701.644v-4.941h3.878l5,4.941H241.415z"/>
		</g>
		<g>
			<path style="fill:#E8E8E8;" d="M359.986,710.533l25.477-1.729c0,0-0.786,1.494-2.673,3.144c-1.888,1.651-2.753,2.12-2.753,2.12
				h-17.928L359.986,710.533z"/>
			<rect x="371.859" y="687.415" style="fill:#E8E8E8;" width="0.472" height="23.433"/>
			<polyline style="fill:#E8E8E8;" points="371.151,687.729 371.151,688.044 371.151,708.804 361.794,709.589 			"/>
			<path style="fill:#E8E8E8;" d="M373.039,689.616c0,0,5.897,4.482,7.863,10.066c1.966,5.581,2.044,8.256,2.044,8.256l-9.514,0.865
				c0,0,2.988-6.92,2.517-11.481C375.477,692.763,373.039,689.616,373.039,689.616z"/>
		</g>
		<path style="fill:#D4D4D3;" d="M327.145,701.864c-0.486,0-0.957,0.064-1.41,0.174l-1-2.724l0.32-0.438l-0.48,0.001l-1.31-3.569
			h-2.365v1.048h1.634l0.927,2.525l-10.942,0.033l-0.647-0.868h1.602c0.512,0,0.928-0.415,0.928-0.928
			c0-0.514-0.415-0.929-0.928-0.929h-3.285c-0.513,0-0.928,0.415-0.928,0.929c0,0.513,0.415,0.928,0.928,0.928h0.377l1.705,2.288
			l-1.396,2.204c-0.754-0.34-1.586-0.533-2.463-0.533c-3.325,0-6.031,2.707-6.031,6.033c0,3.323,2.706,6.029,6.031,6.029
			c3.325,0,6.031-2.706,6.031-6.029c0-2.074-1.051-3.906-2.65-4.993l1.148-1.81l5.251,7.05l5.803-7.953l0.747,2.036
			c-2.13,0.931-3.625,3.057-3.625,5.526c0,3.325,2.705,6.03,6.03,6.03c3.326,0,6.031-2.705,6.031-6.03
			C333.176,704.569,330.471,701.864,327.145,701.864z M313.392,708.039c0,2.746-2.235,4.981-4.982,4.981
			c-2.748,0-4.983-2.235-4.983-4.981c0-2.749,2.235-4.984,4.983-4.984c0.671,0,1.312,0.136,1.896,0.378l-2.339,3.689l0.885,0.561
			l2.377-3.748C312.534,704.832,313.392,706.337,313.392,708.039z M318.181,706.519l-4.884-6.558l9.692-0.03L318.181,706.519z
			 M327.145,712.879c-2.747,0-4.982-2.236-4.982-4.984c0-2.018,1.209-3.757,2.94-4.539l1.551,4.227l0.984-0.361l-1.54-4.197
			c0.338-0.072,0.689-0.111,1.048-0.111c2.748,0,4.983,2.235,4.983,4.981C332.128,710.643,329.893,712.879,327.145,712.879z"/>
		<path style="fill:#575756;" d="M79.703,696.975c-0.503-0.555-3.127-0.403-3.985-0.302c-0.248,0.029-1.635,0.692-3.481,1.621
			l-3.359-1.762c0.146-0.193,0.153-0.541-0.007-0.875c-0.199-0.417-0.581-0.651-0.852-0.521l-0.942,0.45l-5.385-2.825l-1.287,0.757
			l6.884,7.314c-3.573,1.858-6.922,3.636-6.922,3.636l-3.239-0.744l-0.936,0.665l2.755,1.553l0.323,1.022l-0.203,3.229l0.909-0.353
			l1.21-3.229c0,0,3.695-1.346,7.553-2.771l1.026,10.228l1.415-0.474l1.401-5.917l0.958-0.416c0.276-0.119,0.35-0.561,0.167-0.985
			c-0.147-0.339-0.414-0.562-0.656-0.578l0.901-3.803c1.827-0.692,3.169-1.219,3.38-1.349
			C78.089,700.082,80.209,697.53,79.703,696.975z"/>
	</g>
</g>
<g id="Designed_by_freepik">
	<g>
		<g>
			<g>
				<g>
					<g>
						<g>
							<g>
								<g>
									<g style="opacity:0.7;">
										<g>
											<g>
												<g>
													<path style="fill-rule:evenodd;clip-rule:evenodd;fill:#7B7B7A;" d="M292.889,769.396c0.381,0,0.727-0.104,1.041-0.301
														c0.318-0.199,0.57-0.502,0.76-0.916c0.188-0.416,0.281-0.928,0.281-1.543c0-0.584-0.094-1.082-0.281-1.498
														c-0.189-0.42-0.442-0.74-0.77-0.955c-0.314-0.223-0.656-0.328-1.031-0.332v-1.569c0.354,0.05,0.668,0.142,0.943,0.276
														c0.43,0.215,0.85,0.549,1.26,0.994v-3.215c0-0.449,0.088-0.785,0.268-1.013c0.179-0.233,0.434-0.343,0.761-0.343
														c0.332,0,0.585,0.106,0.761,0.318c0.182,0.209,0.271,0.516,0.271,0.926v9.607c0,0.414-0.096,0.727-0.286,0.932
														c-0.196,0.209-0.442,0.311-0.746,0.311c-0.297,0-0.541-0.102-0.737-0.32c-0.193-0.213-0.291-0.525-0.291-0.922v-0.218
														c-0.293,0.339-0.582,0.608-0.865,0.819c-0.285,0.213-0.592,0.369-0.926,0.48c-0.133,0.043-0.269,0.078-0.412,0.106
														V769.396z M290.809,766.636c0,0.586,0.09,1.09,0.273,1.508c0.184,0.414,0.438,0.723,0.754,0.933
														c0.319,0.213,0.668,0.318,1.047,0.318h0.006v1.625c-0.215,0.035-0.441,0.055-0.676,0.055
														c-0.521,0-1.006-0.109-1.449-0.328c-0.441-0.221-0.828-0.535-1.154-0.947c-0.323-0.404-0.57-0.889-0.737-1.443
														c-0.17-0.551-0.252-1.15-0.252-1.797c0-1.359,0.334-2.42,0.998-3.182c0.666-0.76,1.541-1.138,2.627-1.138
														c0.228,0,0.44,0.011,0.644,0.041v1.569h-0.023c-0.399,0-0.757,0.109-1.071,0.334c-0.31,0.229-0.554,0.556-0.727,0.979
														C290.893,765.583,290.809,766.077,290.809,766.636"/>
													<path style="fill-rule:evenodd;clip-rule:evenodd;fill:#7B7B7A;" d="M303.131,765.946h1.977
														c-0.053-0.742-0.256-1.301-0.605-1.668c-0.348-0.369-0.805-0.557-1.371-0.557v-1.516h0.068
														c0.852,0,1.582,0.176,2.188,0.541c0.613,0.357,1.068,0.82,1.375,1.389c0.301,0.566,0.449,1.148,0.449,1.74
														c0,0.545-0.158,0.904-0.469,1.064c-0.318,0.164-0.756,0.244-1.324,0.244h-2.287V765.946z M303.131,771.073v-1.445
														c0.057,0.002,0.109,0.004,0.164,0.004c0.258,0,0.498-0.029,0.717-0.09c0.213-0.059,0.42-0.156,0.621-0.287
														c0.205-0.133,0.391-0.271,0.563-0.42c0.168-0.148,0.389-0.35,0.66-0.604c0.111-0.097,0.272-0.148,0.479-0.148
														c0.223,0,0.402,0.063,0.543,0.186c0.137,0.121,0.207,0.297,0.207,0.517c0,0.197-0.076,0.426-0.229,0.691
														c-0.156,0.264-0.389,0.518-0.701,0.758c-0.309,0.242-0.701,0.441-1.172,0.607c-0.473,0.154-1.012,0.232-1.625,0.232
														C303.281,771.075,303.205,771.075,303.131,771.073 M301.158,765.946h1.973v1.238h-1.973
														c0.002,0.494,0.103,0.93,0.297,1.305c0.195,0.381,0.453,0.664,0.777,0.855c0.275,0.166,0.574,0.26,0.898,0.283v1.445
														c-1.289-0.043-2.303-0.44-3.037-1.195c-0.777-0.797-1.164-1.877-1.164-3.242c0-0.646,0.094-1.242,0.287-1.797
														c0.193-0.547,0.473-1.022,0.84-1.414c0.365-0.393,0.816-0.695,1.354-0.904c0.521-0.205,1.094-0.309,1.721-0.314v1.516
														h-0.004c-0.543,0-0.99,0.186-1.336,0.557C301.443,764.657,301.228,765.212,301.158,765.946"/>
													<path style="fill-rule:evenodd;clip-rule:evenodd;fill:#7B7B7A;" d="M316.06,768.231c0,0.598-0.145,1.113-0.438,1.539
														c-0.295,0.432-0.725,0.756-1.297,0.977c-0.57,0.219-1.27,0.328-2.086,0.328c-0.779,0-1.453-0.114-2.012-0.355
														c-0.563-0.238-0.971-0.543-1.238-0.898c-0.264-0.357-0.398-0.719-0.398-1.082c0-0.24,0.084-0.445,0.256-0.612
														c0.172-0.173,0.387-0.259,0.646-0.259c0.229,0,0.402,0.059,0.527,0.17c0.121,0.107,0.24,0.268,0.354,0.469
														c0.221,0.389,0.488,0.68,0.797,0.867c0.313,0.195,0.738,0.289,1.273,0.289c0.436,0,0.793-0.098,1.076-0.289
														c0.279-0.193,0.418-0.416,0.418-0.666c0-0.383-0.148-0.663-0.434-0.84c-0.291-0.172-0.77-0.344-1.436-0.502
														c-0.75-0.185-1.359-0.377-1.83-0.586c-0.469-0.205-0.844-0.473-1.127-0.809c-0.283-0.338-0.424-0.744-0.424-1.238
														c0-0.438,0.129-0.848,0.391-1.24c0.26-0.387,0.647-0.691,1.152-0.926c0.508-0.232,1.123-0.346,1.838-0.346
														c0.565,0,1.072,0.057,1.522,0.172c0.449,0.119,0.824,0.276,1.125,0.475c0.301,0.195,0.529,0.414,0.684,0.654
														c0.158,0.238,0.238,0.473,0.238,0.699c0,0.25-0.084,0.457-0.25,0.614c-0.168,0.157-0.406,0.241-0.715,0.241
														c-0.225,0-0.414-0.064-0.572-0.189c-0.156-0.127-0.336-0.318-0.537-0.576c-0.164-0.213-0.359-0.385-0.582-0.514
														c-0.225-0.125-0.527-0.192-0.912-0.192c-0.393,0-0.719,0.09-0.978,0.256c-0.262,0.166-0.393,0.375-0.393,0.621
														c0,0.232,0.096,0.42,0.289,0.565c0.191,0.146,0.445,0.269,0.773,0.367c0.322,0.092,0.772,0.207,1.338,0.35
														c0.678,0.166,1.229,0.356,1.658,0.588c0.428,0.231,0.754,0.498,0.973,0.813
														C315.951,767.476,316.06,767.833,316.06,768.231"/>
													<path style="fill-rule:evenodd;clip-rule:evenodd;fill:#7B7B7A;" d="M320.084,763.454v6.299
														c0,0.438-0.104,0.766-0.313,0.99c-0.205,0.223-0.471,0.332-0.787,0.332c-0.322,0-0.582-0.111-0.779-0.34
														c-0.201-0.231-0.299-0.559-0.299-0.982v-6.23c0-0.43,0.098-0.758,0.299-0.973c0.197-0.219,0.457-0.328,0.779-0.328
														c0.316,0,0.582,0.109,0.787,0.328C319.98,762.765,320.084,763.067,320.084,763.454 M319.006,761.208
														c-0.305,0-0.563-0.096-0.777-0.279c-0.217-0.188-0.322-0.451-0.322-0.789c0-0.31,0.109-0.566,0.33-0.766
														c0.221-0.201,0.477-0.297,0.77-0.297c0.281,0,0.531,0.088,0.752,0.27c0.217,0.184,0.326,0.447,0.326,0.793
														c0,0.334-0.107,0.594-0.318,0.785C319.551,761.11,319.299,761.208,319.006,761.208"/>
													<path style="fill-rule:evenodd;clip-rule:evenodd;fill:#7B7B7A;" d="M326.129,769.259
														c0.353-0.004,0.689-0.102,1.004-0.289c0.322-0.199,0.584-0.489,0.787-0.881c0.205-0.393,0.303-0.867,0.303-1.422
														c0-0.893-0.195-1.58-0.586-2.078c-0.385-0.486-0.887-0.731-1.508-0.738v-1.559c0.334,0.057,0.639,0.156,0.912,0.297
														c0.451,0.236,0.871,0.611,1.264,1.115v-0.295c0-0.377,0.09-0.672,0.277-0.877c0.186-0.209,0.426-0.311,0.715-0.311
														c0.424,0,0.701,0.139,0.84,0.41c0.139,0.27,0.207,0.666,0.207,1.186v6.328c0,0.721-0.074,1.346-0.23,1.867
														c-0.152,0.521-0.398,0.951-0.742,1.293c-0.34,0.336-0.785,0.594-1.336,0.758c-0.52,0.15-1.152,0.234-1.906,0.242
														v-1.514c0.477-0.018,0.853-0.094,1.133-0.234c0.313-0.156,0.525-0.375,0.654-0.656
														c0.127-0.287,0.195-0.588,0.217-0.906c0.022-0.322,0.041-0.838,0.051-1.553c-0.338,0.465-0.725,0.826-1.164,1.068
														c-0.266,0.148-0.564,0.252-0.891,0.311V769.259z M324.033,766.579c0,0.881,0.193,1.551,0.578,2.002
														c0.387,0.447,0.885,0.678,1.498,0.678h0.02v1.563c-0.213,0.037-0.438,0.055-0.676,0.055
														c-0.729,0-1.365-0.186-1.912-0.559c-0.543-0.369-0.963-0.891-1.254-1.564c-0.295-0.67-0.441-1.443-0.441-2.324
														c0-0.648,0.092-1.241,0.268-1.766c0.18-0.527,0.432-0.973,0.762-1.334c0.33-0.365,0.711-0.633,1.143-0.818
														c0.43-0.18,0.904-0.273,1.42-0.273c0.242,0,0.475,0.018,0.691,0.055v1.559h-0.037c-0.623,0-1.121,0.232-1.496,0.709
														C324.221,765.03,324.033,765.7,324.033,766.579 M326.129,772.792v1.514l-0.147,0.002c-0.75,0-1.424-0.104-2.012-0.316
														c-0.592-0.207-1.047-0.479-1.367-0.81c-0.316-0.336-0.475-0.676-0.475-1.027c0-0.266,0.088-0.48,0.27-0.645
														c0.18-0.176,0.396-0.258,0.652-0.258c0.32,0,0.6,0.141,0.84,0.422c0.115,0.144,0.234,0.293,0.361,0.438
														c0.127,0.144,0.264,0.271,0.418,0.377c0.148,0.102,0.332,0.178,0.545,0.229c0.211,0.051,0.457,0.078,0.734,0.078
														C326.01,772.794,326.07,772.794,326.129,772.792"/>
													<path style="fill-rule:evenodd;clip-rule:evenodd;fill:#7B7B7A;" d="M334.527,763.425v0.266
														c0.383-0.508,0.803-0.877,1.256-1.113c0.453-0.238,0.978-0.355,1.568-0.355c0.576,0,1.088,0.123,1.539,0.371
														c0.451,0.252,0.789,0.607,1.014,1.063c0.143,0.27,0.236,0.559,0.279,0.859c0.043,0.313,0.063,0.705,0.063,1.18v4.059
														c0,0.438-0.098,0.766-0.295,0.99c-0.201,0.223-0.463,0.332-0.781,0.332c-0.324,0-0.588-0.111-0.789-0.34
														c-0.201-0.231-0.303-0.559-0.303-0.982v-3.633c0-0.715-0.1-1.266-0.299-1.648c-0.199-0.379-0.598-0.568-1.195-0.568
														c-0.387,0-0.74,0.117-1.061,0.348c-0.32,0.227-0.553,0.547-0.701,0.953c-0.105,0.326-0.162,0.934-0.162,1.82v2.729
														c0,0.439-0.102,0.773-0.305,0.994c-0.207,0.219-0.469,0.328-0.795,0.328c-0.313,0-0.572-0.111-0.773-0.34
														c-0.203-0.231-0.303-0.559-0.303-0.982v-6.299c0-0.412,0.09-0.725,0.273-0.926c0.18-0.205,0.424-0.307,0.738-0.307
														c0.191,0,0.365,0.043,0.518,0.133c0.154,0.09,0.279,0.227,0.373,0.41C334.48,762.942,334.527,763.163,334.527,763.425"
														/>
													<path style="fill-rule:evenodd;clip-rule:evenodd;fill:#7B7B7A;" d="M346.213,765.946h1.975
														c-0.055-0.742-0.256-1.301-0.605-1.668c-0.344-0.369-0.805-0.557-1.369-0.557v-1.516h0.068
														c0.85,0,1.578,0.176,2.188,0.541c0.609,0.357,1.066,0.82,1.371,1.389c0.301,0.566,0.453,1.148,0.453,1.74
														c0,0.545-0.158,0.904-0.471,1.064c-0.313,0.164-0.754,0.244-1.324,0.244h-2.285V765.946z M346.213,771.073v-1.445
														c0.053,0.002,0.107,0.004,0.164,0.004c0.26,0,0.496-0.029,0.713-0.09c0.217-0.059,0.422-0.156,0.627-0.287
														c0.203-0.133,0.389-0.271,0.557-0.42c0.172-0.148,0.393-0.35,0.662-0.604c0.113-0.097,0.274-0.148,0.479-0.148
														c0.225,0,0.404,0.063,0.543,0.186c0.139,0.121,0.211,0.297,0.211,0.517c0,0.197-0.078,0.426-0.234,0.691
														c-0.154,0.264-0.387,0.518-0.699,0.758c-0.307,0.242-0.699,0.441-1.172,0.607c-0.469,0.154-1.012,0.232-1.623,0.232
														C346.363,771.075,346.287,771.075,346.213,771.073 M344.236,765.946h1.977v1.238h-1.977
														c0.006,0.494,0.105,0.93,0.299,1.305c0.193,0.381,0.453,0.664,0.771,0.855c0.279,0.166,0.58,0.26,0.906,0.283v1.445
														c-1.291-0.043-2.303-0.44-3.037-1.195c-0.775-0.797-1.166-1.877-1.166-3.242c0-0.646,0.1-1.242,0.287-1.797
														c0.191-0.547,0.471-1.022,0.84-1.414c0.369-0.393,0.816-0.695,1.355-0.904c0.518-0.205,1.09-0.307,1.721-0.314v1.516
														h-0.006c-0.543,0-0.988,0.186-1.338,0.557C344.523,764.657,344.313,765.212,344.236,765.946"/>
													<path style="fill-rule:evenodd;clip-rule:evenodd;fill:#7B7B7A;" d="M355.896,769.396
														c0.379-0.002,0.725-0.104,1.041-0.301c0.313-0.199,0.568-0.502,0.758-0.916c0.19-0.416,0.285-0.928,0.285-1.543
														c0-0.584-0.096-1.082-0.285-1.498c-0.189-0.42-0.445-0.74-0.768-0.955c-0.313-0.223-0.656-0.328-1.031-0.332v-1.569
														c0.354,0.05,0.666,0.142,0.938,0.276c0.432,0.215,0.855,0.549,1.264,0.994v-3.215c0-0.449,0.092-0.785,0.27-1.013
														c0.176-0.233,0.428-0.343,0.76-0.343c0.33,0,0.582,0.106,0.764,0.318c0.178,0.209,0.268,0.516,0.268,0.926v9.607
														c0,0.414-0.096,0.727-0.287,0.932c-0.191,0.209-0.441,0.311-0.744,0.311c-0.297,0-0.543-0.102-0.736-0.32
														c-0.195-0.213-0.293-0.525-0.293-0.922v-0.218c-0.293,0.339-0.582,0.608-0.867,0.819
														c-0.285,0.213-0.594,0.369-0.924,0.48c-0.133,0.043-0.267,0.078-0.41,0.106V769.396z M353.813,766.636
														c0,0.586,0.092,1.09,0.275,1.508c0.185,0.414,0.435,0.723,0.752,0.933c0.32,0.213,0.67,0.318,1.045,0.318h0.012v1.625
														c-0.217,0.035-0.443,0.055-0.68,0.055c-0.52,0-1.006-0.109-1.449-0.328c-0.443-0.221-0.828-0.535-1.15-0.947
														c-0.328-0.404-0.572-0.889-0.738-1.443c-0.17-0.551-0.254-1.15-0.254-1.797c0-1.359,0.332-2.42,0.998-3.182
														c0.666-0.76,1.541-1.138,2.627-1.138c0.227,0,0.443,0.011,0.646,0.041v1.569h-0.027c-0.398,0-0.754,0.109-1.068,0.334
														c-0.314,0.229-0.557,0.556-0.73,0.979C353.896,765.583,353.813,766.077,353.813,766.636"/>
													<path style="fill-rule:evenodd;clip-rule:evenodd;fill:#7B7B7A;" d="M370.627,769.396h0.068
														c0.551,0,1.023-0.242,1.418-0.715c0.398-0.477,0.596-1.158,0.596-2.045c0-0.58-0.08-1.07-0.246-1.488
														c-0.166-0.414-0.4-0.734-0.701-0.963c-0.303-0.225-0.66-0.334-1.066-0.334c-0.021,0-0.045,0-0.068,0.002v-1.572
														c0.203-0.029,0.418-0.043,0.646-0.043c0.723,0,1.359,0.174,1.902,0.514c0.547,0.342,0.969,0.838,1.268,1.492
														c0.303,0.648,0.451,1.426,0.451,2.316c0,0.662-0.084,1.27-0.248,1.818c-0.168,0.551-0.414,1.027-0.732,1.43
														c-0.32,0.404-0.705,0.719-1.16,0.939c-0.453,0.221-0.955,0.328-1.504,0.328c-0.217,0-0.426-0.016-0.623-0.047V769.396z
														 M368.545,766.696c0,0.867,0.197,1.535,0.592,2c0.385,0.449,0.879,0.68,1.49,0.699v1.633
														c-0.109-0.021-0.221-0.043-0.322-0.068c-0.295-0.084-0.549-0.188-0.754-0.32c-0.207-0.127-0.385-0.26-0.533-0.402
														c-0.145-0.137-0.338-0.344-0.576-0.623v0.219c0,0.408-0.098,0.719-0.297,0.932c-0.197,0.209-0.445,0.311-0.748,0.311
														c-0.309,0-0.557-0.102-0.742-0.311c-0.182-0.213-0.273-0.523-0.273-0.932v-9.516c0-0.436,0.092-0.771,0.267-0.996
														c0.178-0.229,0.424-0.34,0.748-0.34c0.334,0,0.59,0.108,0.773,0.324c0.18,0.217,0.271,0.519,0.271,0.92v3.326
														c0.41-0.426,0.826-0.75,1.25-0.975c0.273-0.144,0.582-0.244,0.936-0.297v1.572c-0.387,0.01-0.729,0.123-1.035,0.332
														c-0.326,0.229-0.584,0.555-0.77,0.984C368.637,765.601,368.545,766.108,368.545,766.696"/>
													<path style="fill-rule:evenodd;clip-rule:evenodd;fill:#7B7B7A;" d="M378.439,771.351l0.199-0.486l-2.682-6.752
														c-0.164-0.391-0.248-0.674-0.248-0.846c0-0.184,0.045-0.365,0.146-0.52c0.094-0.162,0.225-0.287,0.392-0.381
														c0.168-0.098,0.342-0.145,0.522-0.145c0.315,0,0.551,0.1,0.711,0.299c0.16,0.197,0.303,0.482,0.426,0.857l1.844,5.361
														l1.746-4.988c0.135-0.404,0.262-0.719,0.373-0.949c0.113-0.229,0.23-0.381,0.358-0.461
														c0.123-0.08,0.301-0.119,0.527-0.119c0.164,0,0.324,0.043,0.477,0.133c0.15,0.088,0.267,0.203,0.35,0.354
														c0.084,0.148,0.123,0.305,0.123,0.469c-0.018,0.098-0.055,0.244-0.102,0.43c-0.047,0.19-0.108,0.379-0.18,0.568
														l-2.838,7.436c-0.246,0.658-0.482,1.168-0.719,1.539c-0.232,0.375-0.539,0.66-0.928,0.859
														c-0.387,0.199-0.906,0.299-1.56,0.299c-0.637,0-1.117-0.072-1.436-0.207c-0.318-0.135-0.478-0.389-0.478-0.756
														c0-0.252,0.076-0.441,0.227-0.582c0.152-0.139,0.377-0.201,0.676-0.201c0.113,0,0.229,0.016,0.344,0.049
														c0.135,0.029,0.254,0.045,0.357,0.045c0.25,0,0.447-0.039,0.588-0.111c0.145-0.07,0.275-0.203,0.389-0.387
														C378.158,771.976,378.293,771.704,378.439,771.351"/>
													<path style="fill-rule:evenodd;clip-rule:evenodd;fill:#7B7B7A;" d="M418.751,762.413h0.521v-0.656
														c0-0.682,0.086-1.221,0.258-1.623c0.17-0.398,0.467-0.695,0.877-0.877c0.416-0.185,0.978-0.275,1.697-0.275
														c1.268,0,1.91,0.311,1.91,0.934c0,0.199-0.07,0.371-0.203,0.52c-0.133,0.143-0.287,0.217-0.471,0.217
														c-0.086,0-0.234-0.018-0.439-0.05c-0.207-0.032-0.381-0.048-0.525-0.048c-0.395,0-0.647,0.115-0.76,0.348
														c-0.109,0.228-0.17,0.563-0.17,0.988v0.523h0.537c0.83,0,1.246,0.25,1.246,0.748c0,0.356-0.111,0.584-0.328,0.678
														c-0.223,0.098-0.529,0.146-0.918,0.146h-0.537v5.768c0,0.43-0.102,0.76-0.303,0.988
														c-0.204,0.225-0.469,0.334-0.795,0.334c-0.309,0-0.566-0.109-0.772-0.334c-0.205-0.229-0.305-0.559-0.305-0.988v-5.768
														h-0.602c-0.324,0-0.572-0.074-0.746-0.225c-0.178-0.144-0.268-0.332-0.268-0.566
														C417.657,762.673,418.022,762.413,418.751,762.413"/>
													<path style="fill-rule:evenodd;clip-rule:evenodd;fill:#7B7B7A;" d="M426.534,767.933v1.82
														c0,0.439-0.103,0.773-0.311,0.994c-0.208,0.219-0.468,0.328-0.794,0.328c-0.307,0-0.568-0.109-0.768-0.332
														c-0.205-0.225-0.309-0.553-0.309-0.99v-6.063c0-0.982,0.358-1.469,1.063-1.469c0.359,0,0.625,0.115,0.781,0.342
														c0.164,0.227,0.248,0.566,0.268,1.012c0.258-0.445,0.525-0.785,0.799-1.012c0.277-0.227,0.641-0.342,1.098-0.342
														c0.457,0,0.9,0.115,1.332,0.342c0.436,0.227,0.647,0.531,0.647,0.908c0,0.268-0.088,0.486-0.273,0.66
														c-0.186,0.172-0.381,0.258-0.596,0.258c-0.08,0-0.275-0.049-0.58-0.146c-0.303-0.1-0.574-0.15-0.81-0.15
														c-0.318,0-0.578,0.09-0.777,0.256c-0.205,0.164-0.363,0.414-0.473,0.742c-0.113,0.334-0.19,0.725-0.234,1.182
														C426.554,766.726,426.534,767.278,426.534,767.933"/>
													<path style="fill-rule:evenodd;clip-rule:evenodd;fill:#7B7B7A;" d="M434.917,765.946h1.973
														c-0.057-0.742-0.254-1.301-0.6-1.668c-0.35-0.369-0.809-0.557-1.373-0.557v-1.516h0.068
														c0.848,0,1.576,0.176,2.185,0.541c0.608,0.357,1.069,0.82,1.372,1.389c0.301,0.566,0.457,1.148,0.457,1.74
														c0,0.545-0.156,0.904-0.471,1.064c-0.314,0.164-0.758,0.244-1.326,0.244h-2.285V765.946z M434.917,771.073v-1.445
														c0.051,0.002,0.107,0.004,0.164,0.004c0.26,0,0.5-0.029,0.714-0.09c0.212-0.059,0.423-0.156,0.624-0.287
														c0.203-0.133,0.389-0.271,0.561-0.42c0.168-0.148,0.395-0.35,0.656-0.604c0.116-0.097,0.281-0.148,0.486-0.148
														c0.219,0,0.4,0.063,0.541,0.186c0.135,0.121,0.205,0.297,0.205,0.517c0,0.197-0.074,0.426-0.23,0.691
														c-0.156,0.264-0.387,0.518-0.697,0.758c-0.313,0.242-0.701,0.441-1.174,0.607c-0.472,0.154-1.012,0.232-1.623,0.232
														C435.065,771.075,434.993,771.075,434.917,771.073 M432.94,765.946h1.977v1.238h-1.977
														c0.008,0.494,0.104,0.93,0.299,1.305c0.193,0.381,0.449,0.664,0.775,0.855c0.277,0.166,0.574,0.258,0.902,0.283v1.445
														c-1.293-0.043-2.305-0.44-3.037-1.195c-0.775-0.797-1.166-1.877-1.166-3.242c0-0.646,0.094-1.242,0.289-1.797
														c0.191-0.547,0.469-1.022,0.836-1.414c0.367-0.393,0.818-0.695,1.359-0.904c0.513-0.205,1.086-0.307,1.719-0.314v1.516
														h-0.006c-0.543,0-0.991,0.186-1.338,0.557C433.226,764.657,433.015,765.212,432.94,765.946"/>
													<path style="fill-rule:evenodd;clip-rule:evenodd;fill:#7B7B7A;" d="M444.628,765.946h1.971
														c-0.053-0.742-0.256-1.301-0.598-1.668c-0.352-0.369-0.805-0.557-1.373-0.557v-1.516h0.063
														c0.857,0,1.584,0.176,2.192,0.541c0.61,0.357,1.069,0.82,1.374,1.389c0.301,0.566,0.451,1.148,0.451,1.74
														c0,0.545-0.16,0.904-0.475,1.064c-0.311,0.164-0.75,0.244-1.318,0.244h-2.287V765.946z M444.628,771.073v-1.445
														c0.051,0.002,0.103,0.004,0.164,0.004c0.256,0,0.494-0.029,0.709-0.09c0.215-0.059,0.428-0.156,0.627-0.287
														c0.205-0.133,0.389-0.271,0.563-0.42c0.172-0.148,0.393-0.35,0.662-0.604c0.111-0.097,0.268-0.148,0.477-0.148
														c0.22,0,0.404,0.063,0.549,0.186c0.129,0.121,0.201,0.297,0.201,0.517c0,0.197-0.072,0.426-0.23,0.691
														c-0.152,0.264-0.387,0.518-0.701,0.758c-0.309,0.242-0.697,0.441-1.172,0.607c-0.471,0.154-1.012,0.232-1.623,0.232
														C444.778,771.075,444.702,771.075,444.628,771.073 M442.653,765.946h1.975v1.238h-1.975
														c0.004,0.494,0.103,0.93,0.297,1.305c0.191,0.381,0.457,0.664,0.773,0.855c0.279,0.166,0.578,0.258,0.904,0.283v1.445
														c-1.291-0.043-2.299-0.44-3.037-1.195c-0.779-0.797-1.167-1.877-1.167-3.242c0-0.646,0.099-1.242,0.286-1.797
														c0.195-0.547,0.473-1.022,0.838-1.414c0.365-0.393,0.822-0.695,1.361-0.904c0.518-0.205,1.092-0.309,1.719-0.314v1.516
														h-0.008c-0.539,0-0.988,0.186-1.336,0.557C442.936,764.657,442.72,765.212,442.653,765.946"/>
													<path style="fill-rule:evenodd;clip-rule:evenodd;fill:#7B7B7A;" d="M456.604,766.61c0-0.576-0.084-1.07-0.264-1.481
														c-0.174-0.414-0.416-0.732-0.725-0.947c-0.313-0.225-0.656-0.332-1.033-0.332h-0.061v-1.565
														c0.188-0.033,0.389-0.049,0.596-0.049c0.668,0,1.281,0.174,1.85,0.519c0.564,0.348,1.008,0.85,1.334,1.516
														c0.326,0.664,0.49,1.449,0.49,2.363c0,0.668-0.096,1.281-0.283,1.844c-0.186,0.56-0.445,1.035-0.777,1.412
														c-0.334,0.379-0.721,0.676-1.166,0.881c-0.451,0.203-0.936,0.303-1.447,0.303c-0.211,0-0.408-0.012-0.596-0.041v-1.639
														h0.061c0.363,0,0.691-0.106,1.002-0.318c0.309-0.211,0.559-0.519,0.744-0.943
														C456.511,767.712,456.604,767.206,456.604,766.61 M454.522,763.851c-0.574,0.014-1.061,0.248-1.461,0.709
														c-0.414,0.471-0.623,1.17-0.623,2.092c0,0.863,0.209,1.537,0.619,2.017c0.395,0.471,0.887,0.709,1.465,0.727v1.639
														c-0.369-0.057-0.695-0.164-0.975-0.334c-0.424-0.246-0.826-0.611-1.213-1.098v3.272c0,0.959-0.346,1.434-1.039,1.434
														c-0.412,0-0.682-0.123-0.818-0.371c-0.135-0.244-0.195-0.607-0.195-1.08v-9.4c0-0.414,0.092-0.727,0.268-0.928
														c0.18-0.205,0.426-0.307,0.746-0.307c0.305,0,0.559,0.102,0.748,0.313c0.199,0.213,0.291,0.514,0.291,0.904v0.266
														c0.418-0.504,0.84-0.879,1.281-1.115c0.277-0.147,0.582-0.25,0.906-0.303V763.851z"/>
													<path style="fill-rule:evenodd;clip-rule:evenodd;fill:#7B7B7A;" d="M462.722,763.454v6.299
														c0,0.438-0.105,0.766-0.314,0.99c-0.207,0.223-0.469,0.332-0.789,0.332c-0.322,0-0.576-0.111-0.779-0.34
														c-0.199-0.231-0.297-0.559-0.297-0.982v-6.23c0-0.43,0.098-0.758,0.297-0.973c0.203-0.219,0.457-0.328,0.779-0.328
														c0.32,0,0.582,0.109,0.789,0.328C462.616,762.765,462.722,763.067,462.722,763.454 M461.644,761.208
														c-0.307,0-0.568-0.096-0.779-0.279c-0.211-0.188-0.322-0.451-0.322-0.789c0-0.31,0.111-0.566,0.332-0.766
														c0.217-0.201,0.475-0.297,0.77-0.297c0.279,0,0.531,0.088,0.754,0.27c0.213,0.184,0.324,0.447,0.324,0.793
														c0,0.334-0.107,0.594-0.322,0.785C462.188,761.11,461.935,761.208,461.644,761.208"/>
													<path style="fill-rule:evenodd;clip-rule:evenodd;fill:#7B7B7A;" d="M470.397,770.079l-1.926-3.16l-1.182,1.119v1.732
														c0,0.42-0.109,0.742-0.326,0.971c-0.225,0.225-0.477,0.334-0.762,0.334c-0.338,0-0.602-0.109-0.791-0.332
														c-0.195-0.225-0.289-0.553-0.289-0.99v-9.287c0-0.484,0.089-0.852,0.277-1.105c0.19-0.254,0.451-0.379,0.803-0.379
														c0.334,0,0.6,0.109,0.795,0.342c0.197,0.229,0.293,0.565,0.293,1.014v5.285l2.451-2.574
														c0.303-0.318,0.535-0.535,0.69-0.654c0.164-0.115,0.361-0.172,0.588-0.172c0.271,0,0.492,0.082,0.68,0.26
														c0.178,0.172,0.268,0.387,0.268,0.648c0,0.318-0.293,0.748-0.885,1.279l-1.154,1.059l2.23,3.512
														c0.172,0.262,0.289,0.461,0.355,0.594c0.074,0.137,0.109,0.268,0.109,0.385c0,0.348-0.092,0.619-0.285,0.824
														c-0.188,0.192-0.438,0.293-0.744,0.293c-0.266,0-0.471-0.068-0.617-0.211
														C470.835,770.72,470.642,770.454,470.397,770.079"/>
													<path style="fill-rule:evenodd;clip-rule:evenodd;fill:#7B7B7A;" d="M475.78,771.075c-0.326,0-0.609-0.102-0.852-0.316
														c-0.24-0.211-0.363-0.512-0.363-0.896c0-0.324,0.119-0.604,0.346-0.838c0.23-0.232,0.514-0.348,0.848-0.348
														c0.332,0,0.621,0.115,0.857,0.346c0.234,0.232,0.354,0.508,0.354,0.84c0,0.379-0.119,0.68-0.354,0.893
														C476.38,770.974,476.101,771.075,475.78,771.075"/>
													<path style="fill-rule:evenodd;clip-rule:evenodd;fill:#7B7B7A;" d="M487.269,768.38c0,0.273-0.088,0.561-0.248,0.871
														c-0.16,0.311-0.408,0.602-0.738,0.883c-0.33,0.279-0.756,0.504-1.256,0.67c-0.504,0.172-1.078,0.256-1.711,0.256
														c-1.35,0-2.395-0.393-3.152-1.176c-0.752-0.781-1.133-1.834-1.133-3.152c0-0.9,0.174-1.688,0.52-2.375
														c0.34-0.683,0.848-1.215,1.5-1.588c0.654-0.377,1.436-0.563,2.348-0.563c0.561,0,1.076,0.08,1.551,0.246
														c0.471,0.166,0.869,0.373,1.197,0.641c0.324,0.256,0.576,0.537,0.75,0.832c0.172,0.297,0.26,0.57,0.26,0.826
														c0,0.262-0.102,0.482-0.295,0.664c-0.193,0.184-0.428,0.268-0.701,0.268c-0.188,0-0.338-0.047-0.455-0.139
														c-0.119-0.092-0.254-0.24-0.402-0.453c-0.266-0.4-0.545-0.705-0.834-0.906c-0.289-0.203-0.66-0.303-1.103-0.303
														c-0.645,0-1.157,0.25-1.557,0.752c-0.395,0.504-0.594,1.188-0.594,2.063c0,0.41,0.047,0.787,0.154,1.133
														c0.098,0.338,0.248,0.631,0.439,0.875c0.19,0.237,0.424,0.426,0.693,0.551c0.269,0.123,0.574,0.186,0.896,0.186
														c0.43,0,0.807-0.102,1.117-0.301c0.315-0.205,0.584-0.508,0.828-0.928c0.129-0.244,0.279-0.435,0.436-0.574
														c0.148-0.137,0.336-0.205,0.561-0.205c0.271,0,0.488,0.1,0.662,0.303C487.175,767.938,487.269,768.155,487.269,768.38"
														/>
													<path style="fill-rule:evenodd;clip-rule:evenodd;fill:#7B7B7A;" d="M495.134,766.651c0-0.889-0.199-1.582-0.589-2.076
														c-0.384-0.492-0.905-0.74-1.564-0.744v-1.609c0.66,0.002,1.25,0.111,1.783,0.316c0.537,0.213,0.998,0.516,1.383,0.91
														c0.385,0.397,0.672,0.863,0.871,1.406c0.201,0.543,0.301,1.141,0.301,1.797c0,0.644-0.1,1.246-0.301,1.787
														c-0.207,0.555-0.504,1.025-0.883,1.416c-0.379,0.393-0.841,0.697-1.371,0.91c-0.527,0.209-1.123,0.311-1.783,0.311
														v-1.621c0.658-0.004,1.18-0.248,1.564-0.746C494.935,768.212,495.134,767.524,495.134,766.651 M492.981,763.831
														l-0.014-0.002c-0.423,0-0.799,0.111-1.125,0.332c-0.32,0.225-0.572,0.549-0.752,0.977
														c-0.173,0.435-0.26,0.939-0.26,1.514c0,0.568,0.086,1.066,0.26,1.492c0.172,0.424,0.42,0.748,0.742,0.975
														c0.322,0.227,0.701,0.336,1.135,0.336h0.014v1.621h-0.014c-0.654,0-1.25-0.102-1.781-0.316
														c-0.521-0.211-0.976-0.518-1.365-0.914c-0.385-0.397-0.68-0.865-0.871-1.406c-0.205-0.539-0.307-1.135-0.307-1.787
														c0-0.662,0.102-1.266,0.313-1.816c0.195-0.545,0.482-1.016,0.863-1.4c0.377-0.39,0.836-0.688,1.367-0.901
														c0.543-0.211,1.133-0.313,1.781-0.313h0.014V763.831z"/>
													<path style="fill-rule:evenodd;clip-rule:evenodd;fill:#7B7B7A;" d="M506.282,766.81v2.893
														c0,0.457-0.105,0.803-0.314,1.033c-0.206,0.229-0.484,0.34-0.824,0.34c-0.328,0-0.592-0.111-0.799-0.34
														c-0.205-0.231-0.307-0.576-0.307-1.033v-3.471c0-0.549-0.021-0.967-0.059-1.273c-0.035-0.305-0.137-0.553-0.303-0.744
														c-0.165-0.199-0.424-0.289-0.783-0.289c-0.709,0-1.178,0.24-1.4,0.729c-0.229,0.49-0.342,1.191-0.342,2.107v2.941
														c0,0.455-0.105,0.796-0.309,1.027c-0.203,0.232-0.475,0.346-0.811,0.346c-0.328,0-0.6-0.113-0.813-0.346
														c-0.209-0.232-0.313-0.572-0.313-1.027v-6.23c0-0.408,0.094-0.721,0.283-0.933c0.191-0.208,0.438-0.317,0.742-0.317
														c0.301,0,0.551,0.1,0.748,0.299c0.203,0.197,0.301,0.475,0.301,0.826v0.205c0.377-0.447,0.779-0.783,1.211-0.996
														c0.436-0.211,0.91-0.318,1.439-0.318c0.545,0,1.018,0.107,1.41,0.326c0.393,0.217,0.72,0.549,0.973,0.988
														c0.371-0.445,0.764-0.779,1.186-0.994c0.418-0.213,0.885-0.32,1.396-0.32c0.594,0,1.107,0.117,1.539,0.348
														c0.43,0.24,0.75,0.572,0.958,1.004c0.192,0.396,0.286,1.019,0.286,1.863v4.25c0,0.457-0.111,0.803-0.316,1.033
														c-0.203,0.229-0.473,0.34-0.818,0.34c-0.326,0-0.598-0.113-0.809-0.346c-0.211-0.232-0.314-0.572-0.314-1.027v-3.662
														c0-0.463-0.022-0.84-0.063-1.126c-0.041-0.28-0.145-0.517-0.324-0.706c-0.174-0.193-0.439-0.283-0.799-0.283
														c-0.285,0-0.553,0.082-0.813,0.25c-0.256,0.17-0.457,0.4-0.607,0.69C506.358,765.229,506.282,765.876,506.282,766.81"
														/>
													<path style="fill-rule:evenodd;clip-rule:evenodd;fill:#7B7B7A;" d="M401.589,756.604
														c-0.047-0.143-0.094-0.279-0.139-0.418c0.73-0.068,1.223-0.945,0.865-1.594c-0.172-0.389-0.576-0.598-0.975-0.605
														h-0.047c-0.343,0.006-0.675,0.152-0.87,0.457c-0.465,0.588-0.104,1.529,0.612,1.721
														c0.043,0.147,0.086,0.297,0.131,0.453c-1.1,0.072-2.218,0.314-3.138,0.941c0.096,0.262,0.191,0.531,0.285,0.803
														c1.857-0.818,3.938-0.643,5.896-0.446c0.067-0.257,0.131-0.517,0.197-0.774
														C403.522,756.743,402.552,756.597,401.589,756.604"/>
													<path style="fill-rule:evenodd;clip-rule:evenodd;fill:#7B7B7A;" d="M412.626,759.601
														c-0.289,0.148-0.348,0.504-0.326,0.797c-0.33,0.32-0.174,0.799-0.209,1.197c-0.076,0.223-0.344,0.248-0.526,0.33
														c-0.257-0.388-0.532-0.764-0.875-1.082v-0.02c-0.372-0.35-0.776-0.672-1.206-0.947
														c-0.34,0.369-0.703,0.732-1.031,1.113c0.652,0.717,1.258,1.49,1.791,2.301c0.369,0.619,0.666,1.279,0.918,1.951
														c0.555-0.283,1.1-0.58,1.652-0.871c-0.291-0.672-0.624-1.328-0.977-1.977c0.242-0.129,0.57-0.256,0.609-0.576
														c0.027-0.352-0.051-0.734,0.158-1.043c0.428,0.279,1.076-0.033,1.082-0.555
														C413.743,759.683,413.067,759.3,412.626,759.601"/>
													<path style="fill-rule:evenodd;clip-rule:evenodd;fill:#7B7B7A;" d="M408.298,764.067
														c-0.127,0.897-0.984,1.656-1.9,1.602v3.596c1.684-0.451,3.311-1.117,4.814-1.998c0,0-0.32-1.75-1.568-3.66
														c-0.721-1.193-1.496-2.381-2.554-3.301c-0.218-0.191-0.454-0.371-0.692-0.541v2.078
														c0.232,0.008,0.463,0.049,0.686,0.102C407.923,762.243,408.472,763.194,408.298,764.067 M406.397,765.669h-0.008
														c-0.527,0.043-1.039-0.209-1.398-0.582c-0.264-0.322-0.477-0.693-0.512-1.113c-0.125-0.912,0.52-1.853,1.41-2.066
														c0.166-0.051,0.336-0.068,0.508-0.064v-2.078c-1.102-0.769-2.418-1.258-3.768-1.25
														c-1.666-0.019-3.351,0.192-4.936,0.703v1.977c0.295,0,0.588,0.041,0.871,0.121c0.318,0.082,0.613,0.23,0.889,0.414
														c0.564,0.4,0.994,0.994,1.18,1.666c0.264,0.859,0.096,1.824-0.404,2.566c-0.361,0.523-0.877,0.932-1.474,1.16
														c-0.335,0.127-0.7,0.188-1.061,0.188v2.666l0.086,0.006c1.943,0.059,3.907,0.108,5.845-0.166
														c0.932-0.121,1.863-0.307,2.773-0.551V765.669z M397.693,759.218v1.977c-0.502-0.002-1,0.115-1.445,0.352
														c-0.92,0.494-1.57,1.473-1.613,2.521c-0.061,0.84,0.273,1.674,0.832,2.297c0.564,0.619,1.396,0.945,2.227,0.945v2.666
														c-1.947-0.098-3.865-0.519-5.752-0.992c-0.348-1.748-0.357-3.641,0.412-5.285c0.793-1.826,2.361-3.244,4.172-4.039
														C396.908,759.493,397.298,759.347,397.693,759.218"/>
													<path style="fill-rule:evenodd;clip-rule:evenodd;fill:#7B7B7A;" d="M392.375,760.94
														c-0.777,0.471-1.416,1.133-1.951,1.861c-0.156-0.289-0.203-0.635-0.404-0.893c-0.119-0.157-0.326-0.092-0.486-0.094
														c-0.207,0.02-0.408-0.035-0.602-0.094c0.229-0.322,0.166-0.811-0.184-1.02c-0.371-0.269-0.947-0.035-1.045,0.408
														c-0.158,0.484,0.359,0.971,0.836,0.844c0.252,0.377,0.709,0.315,1.1,0.326c0.172,0.305,0.305,0.639,0.531,0.914
														c-0.418,0.82-0.652,1.742-0.67,2.666c0.533,0.223,1.066,0.453,1.607,0.676c0.025-0.586,0.094-1.162,0.182-1.732
														c0.18-1.252,0.9-2.338,1.76-3.234C392.836,761.347,392.6,761.153,392.375,760.94"/>
													<path style="fill-rule:evenodd;clip-rule:evenodd;fill:#7B7B7A;" d="M404.894,770.364
														c-1.973,0.432-4.011,0.557-6.026,0.469c-1.365-0.07-2.728-0.195-4.061-0.489c-0.945-0.194-1.871-0.468-2.801-0.733
														c0.148,1.188,0.629,2.322,1.314,3.299c0.807,1.143,1.889,2.185,3.238,2.604c0.981,0.264,2.147,0.602,4.064,0.609h0.196
														l0.198-0.004c1.783-0.029,3.539-0.258,5.103-0.924c1.008-0.432,1.959-1.025,2.77-1.766
														c0.703-0.662,1.252-1.486,1.637-2.377c0.365-0.833,0.695-2.344,0.662-3.111
														C409.255,769.04,407.095,769.995,404.894,770.364"/>
												</g>
											</g>
										</g>
									</g>
								</g>
							</g>
						</g>
					</g>
				</g>
			</g>
		</g>
	</g>
</g>
</svg>
